<?xml version="1.0" standalone="no"?><!DOCTYPE svg PUBLIC "-//W3C//DTD SVG 1.1//EN" "http://www.w3.org/Graphics/SVG/1.1/DTD/svg11.dtd"><svg t="1589175194827" class="icon" viewBox="0 0 1024 1024" version="1.1" xmlns="http://www.w3.org/2000/svg" p-id="976" xmlns:xlink="http://www.w3.org/1999/xlink" width="200" height="200"><defs><style type="text/css"></style></defs><path d="M238.064 305.936l0.144-0.144A47.2 47.2 0 0 0 272 320a48 48 0 0 0 48-48c0-13.28-5.456-25.168-14.192-33.808l0.144-0.144-24.896-24.896-87.12-87.12a48 48 0 0 0-67.872 67.904l112 112zM752 320c13.28 0 25.168-5.472 33.808-14.208l0.144 0.144 24.88-24.896 87.104-87.104a48 48 0 1 0-67.872-67.872l-87.088 87.12-24.912 24.896 0.16 0.144A47.152 47.152 0 0 0 704 272a48 48 0 0 0 48 48z m-240-96a48 48 0 0 0 48-48V48a48 48 0 1 0-96 0v128a48 48 0 0 0 48 48zM224 512a48 48 0 0 0-48-48H48a48 48 0 1 0 0 96h128a48 48 0 0 0 48-48z m586.832 230.944l-24.88-24.896a48 48 0 1 0-67.888 67.888l24.912 24.896 87.088 87.104a48 48 0 1 0 67.872-67.872l-87.104-87.12zM272 704a47.84 47.84 0 0 0-33.936 14.064l-112 112a48 48 0 1 0 67.872 67.872l87.12-87.104 24.896-24.896A48 48 0 0 0 272 704z m704-240h-128a48 48 0 1 0 0 96h128a48 48 0 1 0 0-96z m-464-144c-106.032 0-192 85.968-192 192 0 16.336 2.256 32.112 6.096 47.248l18.928 47.328C378.032 664.704 440.384 704 512 704c106.032 0 192-85.952 192-192 0-106.032-85.968-192-192-192z m0 288a96 96 0 1 1 0-192 96 96 0 0 1 0 192z m0 192a48 48 0 0 0-48 48v128a48 48 0 1 0 96 0v-128a48 48 0 0 0-48-48z" fill="" p-id="977"></path></svg>