<?xml version="1.0" standalone="no"?><!DOCTYPE svg PUBLIC "-//W3C//DTD SVG 1.1//EN" "http://www.w3.org/Graphics/SVG/1.1/DTD/svg11.dtd"><svg t="1591607521515" class="icon" viewBox="0 0 1024 1024" version="1.1" xmlns="http://www.w3.org/2000/svg" p-id="8491" xmlns:xlink="http://www.w3.org/1999/xlink" width="200" height="200"><defs><style type="text/css"></style></defs><path d="M726.4 393.6c-12.8-12.8-33.6-12.8-44.8 0L448 628.8l-104-105.6c-12.8-12.8-32-12.8-44.8 0-12.8 12.8-12.8 32 0 44.8l126.4 129.6c1.6 1.6 4.8 3.2 6.4 4.8 1.6 0 1.6 1.6 3.2 1.6 3.2 1.6 8 3.2 12.8 3.2 4.8 0 8 0 11.2-1.6 1.6 0 1.6-1.6 3.2-1.6 1.6-1.6 4.8-3.2 6.4-4.8l256-259.2c14.4-14.4 14.4-33.6 1.6-46.4z" fill="#cdcdcd" p-id="8492"></path></svg>