<?xml version="1.0" standalone="no"?><!DOCTYPE svg PUBLIC "-//W3C//DTD SVG 1.1//EN" "http://www.w3.org/Graphics/SVG/1.1/DTD/svg11.dtd"><svg t="1589185322474" class="icon" viewBox="0 0 1024 1024" version="1.1" xmlns="http://www.w3.org/2000/svg" p-id="4970" xmlns:xlink="http://www.w3.org/1999/xlink" width="200" height="200"><defs><style type="text/css"></style></defs><path d="M822 852c-7.7 0-15.4-2.9-21.2-8.8l-620-620c-11.7-11.7-11.7-30.7 0-42.4s30.7-11.7 42.4 0l620 620c11.7 11.7 11.7 30.7 0 42.4-5.8 5.9-13.5 8.8-21.2 8.8z" p-id="4971"></path><path d="M202 852c-7.7 0-15.4-2.9-21.2-8.8-11.7-11.7-11.7-30.7 0-42.4l620-620c11.7-11.7 30.7-11.7 42.4 0s11.7 30.7 0 42.4l-620 620c-5.8 5.9-13.5 8.8-21.2 8.8z" p-id="4972"></path></svg>