<?xml version="1.0" standalone="no"?><!DOCTYPE svg PUBLIC "-//W3C//DTD SVG 1.1//EN" "http://www.w3.org/Graphics/SVG/1.1/DTD/svg11.dtd"><svg t="1589249321038" class="icon" viewBox="0 0 1024 1024" version="1.1" xmlns="http://www.w3.org/2000/svg" p-id="26875" xmlns:xlink="http://www.w3.org/1999/xlink" width="200" height="200"><defs><style type="text/css"></style></defs><path d="M512 512m-512 0a512 512 0 1 0 1024 0 512 512 0 1 0-1024 0Z" fill="#84d1f4" p-id="26876" data-spm-anchor-id="a313x.7781069.0.i19" class="selected"></path><path d="M723.484853 780.774541c-1.882802-12.020968-4.344928-23.752274-7.096716-35.049087-1.303478-5.358745-3.04145-10.427828-4.63459-15.641741-2.027633-6.807054-3.910435-13.614108-6.372561-20.131501-2.172464-5.938069-4.489759-11.441644-6.951885-17.234882-2.317295-5.358745-4.489759-10.86232-6.951886-16.076234-2.751788-5.793238-5.793238-11.441644-8.834687-16.94522a398.537406 398.537406 0 0 0-7.67604-13.324446c-3.331112-5.503576-6.951885-10.71749-10.572658-15.931403a224.128141 224.128141 0 0 0-8.400195-11.151983c-3.910435-4.924252-7.965702-9.848504-12.165799-14.483094-3.04145-3.186281-6.082899-6.22773-9.124349-9.26918-4.344928-4.344928-8.834687-8.545025-13.469277-12.455461-3.331112-2.751788-6.807054-5.069083-10.138166-7.531208-4.779421-3.475943-9.414011-7.096716-14.338263-9.993335-0.289662-0.144831-0.579324-0.434493-0.868985-0.579324-15.062418-8.979518-24.186767-24.910922-24.186767-42.435465V502.699138c0-17.524544 9.26918-33.455947 24.186767-42.435465 0.289662-0.144831 0.579324-0.434493 0.868985-0.579324 4.924252-3.04145 9.558842-6.517392 14.338263-9.993335 3.475943-2.462126 6.807054-4.779421 10.138166-7.531208 4.63459-3.910435 8.979518-8.110533 13.469277-12.455461 3.04145-3.04145 6.22773-6.082899 9.26918-9.26918a288.764606 288.764606 0 0 0 12.165799-14.338263c2.896619-3.620773 5.648407-7.386378 8.400195-11.151983 3.620773-5.069083 7.241547-10.427828 10.572658-15.931403 2.751788-4.344928 5.213914-8.834687 7.67604-13.324446 3.04145-5.503576 6.082899-11.151982 8.834687-16.94522a268.567478 268.567478 0 0 0 6.951885-16.076235c2.317295-5.648407 4.779421-11.296813 6.951886-17.234881 2.317295-6.517392 4.344928-13.324446 6.372561-20.131501 1.59314-5.213914 3.331112-10.282997 4.63459-15.641741 2.896619-11.441644 5.213914-23.17295 7.096716-35.049088 0.144831-1.013817 0.434493-1.882802 0.579324-2.896618 4.63459-30.269666-18.53836-57.787545-49.24252-57.787545H347.793397c-30.704159 0-53.877109 27.517878-49.24252 57.787545 0.144831 1.013817 0.434493 1.882802 0.579324 2.896618 1.882802 12.020968 4.344928 23.752274 7.096716 35.193919 1.303478 5.358745 3.04145 10.427828 4.63459 15.641741 2.027633 6.807054 3.910435 13.614108 6.372562 20.131501 2.172464 5.938069 4.489759 11.441644 6.951885 17.234881 2.317295 5.358745 4.489759 10.86232 6.951885 16.076235 2.751788 5.793238 5.793238 11.441644 8.834687 16.94522a398.537406 398.537406 0 0 0 7.67604 13.324446c3.331112 5.503576 6.951885 10.71749 10.572658 15.931403a224.128141 224.128141 0 0 0 8.400195 11.151983c3.910435 4.924252 7.965702 9.848504 12.165799 14.338263a279.68891 279.68891 0 0 0 9.26918 9.26918c4.344928 4.344928 8.834687 8.545025 13.469277 12.45546 3.331112 2.751788 6.807054 5.069083 10.138166 7.531209 4.779421 3.475943 9.414011 7.096716 14.338263 9.993335 0.289662 0.144831 0.579324 0.434493 0.868986 0.579324 15.062418 8.979518 24.186767 24.910922 24.186766 42.435465v19.841839c0 17.524544-9.26918 33.455947-24.186766 42.435465-0.289662 0.144831-0.579324 0.434493-0.868986 0.579324-4.924252 3.04145-9.558842 6.517392-14.338263 9.993334-3.331112 2.462126-6.807054 4.779421-10.138166 7.531209-4.63459 3.910435-8.979518 8.110533-13.469277 12.455461-3.04145 3.04145-6.22773 5.938069-9.124349 9.26918-4.200097 4.63459-8.255364 9.414011-12.165799 14.483094-2.896619 3.620773-5.648407 7.386378-8.400195 11.151982-3.620773 5.213914-7.241547 10.427828-10.572658 15.931404a398.537406 398.537406 0 0 0-7.67604 13.324446c-3.04145 5.503576-6.082899 11.151982-8.834687 16.94522a268.567478 268.567478 0 0 0-6.951885 16.076234c-2.317295 5.648407-4.779421 11.296813-6.951886 17.234882-2.317295 6.517392-4.344928 13.324446-6.372561 20.131501-1.59314 5.213914-3.331112 10.282997-4.63459 15.641741-2.896619 11.441644-5.213914 23.17295-7.096716 35.193918-0.144831 1.013817-0.434493 1.882802-0.579324 2.896619-4.63459 30.269666 18.53836 57.787545 49.24252 57.787545h327.02826c30.704159 0 53.877109-27.517878 49.24252-57.787545-0.289662-1.158648-0.579324-2.172464-0.724155-3.186281z" fill="#FFFFFF" p-id="26877"></path><path d="M395.877269 795.112804h231.005348c8.689856 0 12.745123-11.007151 5.938068-16.510727l-106.305909-82.843297c-2.172464-1.737971-3.331112-4.344928-3.331112-7.241547V421.883474c0-2.606957 1.158648-5.069083 3.04145-6.807054l63.29112-51.994307c6.22773-5.793238 2.172464-16.221065-6.372561-16.221065H439.471381c-8.545025 0-12.600292 10.427828-6.372561 16.221065l62.566966 51.704645c1.882802 1.737971 3.04145 4.200097 3.041449 6.807054v266.633759c0 2.751788-1.303478 5.358745-3.331111 7.241547l-105.581755 83.132959c-6.662223 5.648407-2.751788 16.510727 6.0829 16.510727z" fill="#84d1f4" p-id="26878" data-spm-anchor-id="a313x.7781069.0.i20" class="selected"></path></svg>