<?xml version="1.0" standalone="no"?><!DOCTYPE svg PUBLIC "-//W3C//DTD SVG 1.1//EN" "http://www.w3.org/Graphics/SVG/1.1/DTD/svg11.dtd"><svg t="1589249579503" class="icon" viewBox="0 0 1024 1024" version="1.1" xmlns="http://www.w3.org/2000/svg" p-id="29045" xmlns:xlink="http://www.w3.org/1999/xlink" width="200" height="200"><defs><style type="text/css"></style></defs><path d="M603.6 202.3c0-51.4-41.1-93.2-91.6-93.2s-91.5 41.8-91.5 93.2 41.1 93.2 91.5 93.2c50.5 0 91.6-41.8 91.6-93.2zM603.6 821.5c0-51.4-41.1-93.2-91.6-93.2s-91.5 41.8-91.5 93.2 41.1 93.2 91.5 93.2c50.5 0.1 91.6-41.8 91.6-93.2zM603.6 511.9c0-51.4-41.1-93.2-91.6-93.2s-91.5 41.8-91.5 93.2 41.1 93.2 91.5 93.2c50.5 0 91.6-41.8 91.6-93.2z" p-id="29046" fill="#1296db"></path></svg>