<?xml version="1.0" standalone="no"?><!DOCTYPE svg PUBLIC "-//W3C//DTD SVG 1.1//EN" "http://www.w3.org/Graphics/SVG/1.1/DTD/svg11.dtd"><svg t="1591596698874" class="icon" viewBox="0 0 1024 1024" version="1.1" xmlns="http://www.w3.org/2000/svg" p-id="2768" xmlns:xlink="http://www.w3.org/1999/xlink" width="200" height="200"><defs><style type="text/css"></style></defs><path d="M512 0a512 512 0 1 0 0 1024A512 512 0 0 0 512 0z m311.0912 823.0912A437.76 437.76 0 0 1 512 952.0128a437.4528 437.4528 0 0 1-311.0912-128.8192 437.76 437.76 0 0 1-94.208-139.8784A436.6336 436.6336 0 0 1 71.7824 512a440.4224 440.4224 0 0 1 611.328-405.504c52.3264 22.2208 99.328 53.8624 139.776 94.208 40.448 40.448 72.2944 87.552 94.3104 140.0832 23.04 54.272 34.6112 111.8208 34.6112 171.2128a437.4528 437.4528 0 0 1-128.8192 311.0912zM506.7776 663.9616l-3.584-0.3072a36.0448 36.0448 0 0 1-32.256-39.3216c4.9152-49.9712 41.472-90.2144 81.7152-130.56 64.512-64.512 65.536-84.992 66.7648-106.7008a92.5696 92.5696 0 0 0-26.4192-69.12 112.3328 112.3328 0 0 0-81.2032-34.5088h-0.2048a107.7248 107.7248 0 0 0-107.3152 107.52 36.0448 36.0448 0 1 1-71.9872 0c-0.1024-47.616 18.7392-93.184 52.4288-126.8736a178.176 178.176 0 0 1 126.6688-52.6336c50.5856-0.1024 98.9184 20.48 133.8368 56.9344a163.84 163.84 0 0 1 46.08 122.4704c-2.4576 46.3872-16.6912 82.8416-87.6544 153.8048-36.0448 36.0448-58.7776 63.0784-61.0304 86.7328a36.0448 36.0448 0 0 1-35.84 32.4608z m-44.544 105.2672a43.3152 43.3152 0 1 0 86.6304 0 43.3152 43.3152 0 0 0-86.6304 0z" fill="#1296db" p-id="2769"></path></svg>